<svg width="33" height="33" viewBox="0 0 33 33" fill="none" xmlns="http://www.w3.org/2000/svg">
<path d="M27.8898 14.8571C27.8519 14.6968 27.7751 14.5483 27.666 14.4249C27.557 14.3015 27.4192 14.2069 27.2648 14.1496L20.0636 11.4483L21.8961 2.28206C21.9376 2.06909 21.9087 1.8484 21.8137 1.65329C21.7188 1.45818 21.563 1.29924 21.3698 1.20046C21.1766 1.10168 20.9565 1.06841 20.7428 1.10568C20.529 1.14295 20.3332 1.24873 20.1848 1.40706L6.18481 16.4071C6.0711 16.5269 5.98884 16.673 5.94539 16.8323C5.90193 16.9917 5.89862 17.1594 5.93577 17.3203C5.97291 17.4813 6.04934 17.6305 6.15824 17.7547C6.26713 17.8789 6.4051 17.9742 6.55981 18.0321L13.7636 20.7333L11.9361 29.8896C11.8946 30.1025 11.9235 30.3232 12.0184 30.5183C12.1133 30.7134 12.2692 30.8724 12.4623 30.9712C12.6555 31.0699 12.8756 31.1032 13.0894 31.0659C13.3031 31.0287 13.4989 30.9229 13.6473 30.7646L27.6473 15.7646C27.759 15.6447 27.8395 15.4993 27.8817 15.3411C27.924 15.1828 27.9268 15.0166 27.8898 14.8571ZM14.5873 26.8358L15.8961 20.2883C15.9429 20.0561 15.9058 19.8148 15.7913 19.6074C15.6769 19.4 15.4925 19.24 15.2711 19.1558L8.66606 16.6746L19.2436 5.34206L17.9361 11.8896C17.8892 12.1218 17.9263 12.3631 18.0408 12.5705C18.1553 12.7779 18.3396 12.9379 18.5611 13.0221L25.1611 15.4971L14.5873 26.8358Z" fill="#FACC15"/>
</svg>
